<svg xmlns="http://www.w3.org/2000/svg" viewBox="0 0 332 96" role="img" aria-labelledby="rhea-lockup-dark-title">
  <title id="rhea-lockup-dark-title">Rhea — AiRP, AI Resource Planning</title>
  <!-- Dark-baked lockup for <img> use on dark grounds. -->
  <defs>
    <radialGradient id="rhea-glow-ld">
      <stop offset="0%" stop-color="#55D0F2" stop-opacity="0.45"/>
      <stop offset="55%" stop-color="#55D0F2" stop-opacity="0.16"/>
      <stop offset="100%" stop-color="#55D0F2" stop-opacity="0"/>
    </radialGradient>
  </defs>

  <g transform="scale(0.8)">
    <circle cx="60" cy="60" r="44" fill="url(#rhea-glow-ld)"/>
    <g stroke="#8CA1AA" stroke-width="1.5" stroke-opacity="0.6">
      <line x1="75.7" y1="46.8" x2="84.5" y2="39.4"/>
      <line x1="79.8" y1="65.3" x2="95.5" y2="69.5"/>
      <line x1="65.3" y1="79.8" x2="68.4" y2="91.4"/>
      <line x1="43.2" y1="71.8" x2="32.2" y2="79.5"/>
      <line x1="41.4" y1="51.3" x2="31.0" y2="46.5"/>
      <line x1="58.2" y1="39.6" x2="56.9" y2="24.6"/>
    </g>
    <circle cx="60" cy="60" r="19" fill="none" stroke="#41BBDC" stroke-width="3"/>
    <circle cx="60" cy="60" r="12.5" fill="none" stroke="#41BBDC" stroke-opacity="0.4" stroke-width="1.3" stroke-dasharray="2.5 4"/>
    <rect x="84.6" y="31.1" width="9"   height="9"   rx="2" fill="#41BBDC"/>
    <rect x="96.8" y="67.1" width="7.5" height="7.5" rx="2" fill="#41BBDC"/>
    <rect x="65.8" y="92.7" width="8"   height="8"   rx="2" fill="#41BBDC"/>
    <rect x="22.7" y="78.4" width="9"   height="9"   rx="2" fill="#41BBDC"/>
    <rect x="23.0" y="40.9" width="7"   height="7"   rx="2" fill="#41BBDC"/>
    <rect x="52.4" y="15.2" width="8" height="8" rx="2" fill="none" stroke="#41BBDC" stroke-width="1.5" stroke-dasharray="2.5 2.5"/>
  </g>

  <text x="112" y="56" font-family="'IBM Plex Serif',Georgia,'Times New Roman',serif" font-weight="500" font-size="46" fill="#E4EDF0">Rhea</text>
  <text x="114" y="78" font-family="'IBM Plex Mono',ui-monospace,'Courier New',monospace" font-weight="600" font-size="10" letter-spacing="1.4" fill="#8CA1AA">AiRP · AI RESOURCE PLANNING</text>
</svg>
